<svg width="16" height="16" viewBox="0 0 16 16" fill="none" xmlns="http://www.w3.org/2000/svg">
<g clip-path="url(#clip0_3424_1769)">
<path d="M3.33295 16H6.66629C6.8431 16 7.01267 15.9298 7.13769 15.8047C7.26271 15.6797 7.33295 15.5101 7.33295 15.3333C7.33295 15.1565 7.26271 14.987 7.13769 14.8619C7.01267 14.7369 6.8431 14.6667 6.66629 14.6667H3.33295C3.03596 14.6655 2.74308 14.5971 2.47628 14.4667L15.8043 1.138C15.868 1.0765 15.9187 1.00294 15.9537 0.921601C15.9886 0.840265 16.007 0.752785 16.0078 0.664266C16.0086 0.575746 15.9917 0.48796 15.9582 0.40603C15.9246 0.324099 15.8751 0.249663 15.8126 0.187068C15.75 0.124474 15.6755 0.0749702 15.5936 0.0414495C15.5117 0.00792885 15.4239 -0.00893784 15.3354 -0.00816917C15.2468 -0.00740051 15.1594 0.0109911 15.078 0.0459309C14.9967 0.0808706 14.9231 0.131658 14.8616 0.195331L1.53295 13.5233C1.40248 13.2565 1.3341 12.9637 1.33295 12.6667V9.33333C1.33295 9.15652 1.26271 8.98695 1.13769 8.86193C1.01267 8.7369 0.843096 8.66667 0.666285 8.66667C0.489473 8.66667 0.319903 8.7369 0.19488 8.86193C0.0698557 8.98695 -0.00038147 9.15652 -0.00038147 9.33333V12.6667C0.000677109 13.5504 0.352205 14.3976 0.977098 15.0225C1.60199 15.6474 2.44922 15.9989 3.33295 16V16Z" fill="#667085"/>
<path d="M11.9993 9.33329C11.4719 9.33329 10.9564 9.48969 10.5178 9.78271C10.0793 10.0757 9.7375 10.4922 9.53567 10.9795C9.33384 11.4667 9.28103 12.0029 9.38392 12.5202C9.48681 13.0375 9.74079 13.5126 10.1137 13.8856C10.4867 14.2585 10.9618 14.5125 11.4791 14.6154C11.9964 14.7183 12.5326 14.6655 13.0198 14.4636C13.5071 14.2618 13.9236 13.92 14.2166 13.4815C14.5096 13.0429 14.666 12.5274 14.666 12C14.666 11.2927 14.3851 10.6144 13.885 10.1143C13.3849 9.61424 12.7066 9.33329 11.9993 9.33329ZM11.9993 13.3333C11.7356 13.3333 11.4779 13.2551 11.2586 13.1086C11.0393 12.9621 10.8684 12.7538 10.7675 12.5102C10.6666 12.2666 10.6402 11.9985 10.6916 11.7398C10.7431 11.4812 10.8701 11.2436 11.0565 11.0571C11.243 10.8707 11.4806 10.7437 11.7392 10.6922C11.9979 10.6408 12.266 10.6672 12.5096 10.7681C12.7532 10.869 12.9615 11.0399 13.108 11.2592C13.2545 11.4785 13.3327 11.7362 13.3327 12C13.3327 12.3536 13.1922 12.6927 12.9422 12.9428C12.6921 13.1928 12.353 13.3333 11.9993 13.3333Z" fill="#667085"/>
<path d="M3.99935 6.66663C4.52676 6.66663 5.04234 6.51023 5.48087 6.21721C5.9194 5.92419 6.26119 5.50772 6.46303 5.02045C6.66486 4.53318 6.71767 3.997 6.61478 3.47972C6.51188 2.96244 6.25791 2.48728 5.88497 2.11434C5.51203 1.7414 5.03687 1.48743 4.51959 1.38453C4.00231 1.28164 3.46613 1.33445 2.97886 1.53628C2.49159 1.73811 2.07511 2.07991 1.78209 2.51844C1.48908 2.95697 1.33268 3.47254 1.33268 3.99996C1.33268 4.7072 1.61363 5.38548 2.11373 5.88558C2.61383 6.38567 3.2921 6.66663 3.99935 6.66663ZM3.99935 2.66663C4.26306 2.66663 4.52084 2.74483 4.74011 2.89133C4.95937 3.03784 5.13027 3.24608 5.23119 3.48971C5.3321 3.73335 5.35851 4.00144 5.30706 4.26008C5.25561 4.51872 5.12863 4.7563 4.94216 4.94277C4.75569 5.12924 4.51811 5.25623 4.25947 5.30767C4.00083 5.35912 3.73274 5.33272 3.4891 5.2318C3.24547 5.13088 3.03723 4.95999 2.89072 4.74072C2.74421 4.52145 2.66601 4.26367 2.66601 3.99996C2.66601 3.64634 2.80649 3.3072 3.05654 3.05715C3.30659 2.8071 3.64573 2.66663 3.99935 2.66663Z" fill="#667085"/>
</g>
<defs>
<clipPath id="clip0_3424_1769">
<rect width="16" height="16" fill="white" transform="matrix(-1 0 0 -1 16 16)"/>
</clipPath>
</defs>
</svg>
